<svg width="78" height="124" viewBox="0 0 78 124" fill="none" xmlns="http://www.w3.org/2000/svg">
<path d="M34.9546 0.707481C32.1012 2.02444 30.6196 4.38402 30.5922 7.59413C30.5647 9.15804 30.7019 9.78909 31.333 11.0786C31.772 11.9566 32.4305 12.8894 32.8146 13.1913L33.5005 13.74L32.9243 16.1819C32.5951 17.5263 32.3481 18.953 32.3481 19.3645C32.3481 19.7487 32.211 20.6266 32.0189 21.3126C31.7445 22.2729 31.772 22.7942 32.0189 23.6996C32.2384 24.3855 32.3756 26.2238 32.3481 28.0346C32.3207 32.9732 33.3359 37.1436 35.1741 39.5581C36.9575 41.9451 36.8752 41.6982 36.2167 42.4115C35.9149 42.7408 34.6803 43.4541 33.5005 43.948C28.3149 46.1978 25.9005 47.5971 21.5929 50.8346C20.4405 51.7126 19.3431 52.4809 19.1784 52.5083C19.0413 52.5632 18.3553 51.3834 17.6969 49.9018C16.5171 47.3502 16.4896 47.1855 16.8463 46.3076C17.0658 45.7863 17.7792 43.7834 18.4651 41.8079C19.1236 39.8599 19.9467 37.7473 20.2485 37.1436C21.0167 35.6346 20.9618 35.0036 20.029 34.0433C18.712 32.7263 16.9835 32.9458 15.1452 34.7018L14.2398 35.5523V34.1805C14.2398 32.1776 13.7185 29.379 13.1698 28.4462C12.1546 26.6902 9.63041 25.8122 8.34088 26.7725C8.01164 27.0194 7.4629 27.1017 6.88673 27.0194C6.09106 26.8822 5.87156 26.992 4.8564 28.062C4.25279 28.7205 3.34737 29.4339 2.88094 29.6808C0.905488 30.6685 0.35675 33.7963 1.20729 39.1465C1.8109 42.9603 2.49683 45.1003 3.64918 46.774L4.55459 48.1184L4.03329 49.1061C3.37481 50.4231 3.40224 51.8224 4.19791 54.7856C5.56976 59.8339 7.90189 65.0744 9.7676 67.2419C12.868 70.8636 16.7091 70.8361 25.0774 67.1047C25.2694 67.0224 25.2969 67.6809 25.1597 68.9704C25.0499 70.0679 24.8853 75.0888 24.7756 80.1098L24.5835 89.2463L25.2146 89.9048C25.5712 90.2889 26.0925 90.5907 26.3943 90.5907C26.9156 90.5907 26.9156 90.7279 26.751 92.5387C26.6687 93.6087 26.1474 97.5322 25.6261 101.264C24.4738 109.604 24.2268 112.403 24.6109 112.869C24.8304 113.144 24.4189 113.226 22.5257 113.226C19.6997 113.226 18.0261 113.775 16.7914 115.092C15.6391 116.299 15.4745 116.958 16.133 117.808C17.3402 119.317 24.1171 122.006 27.5741 122.335C28.7539 122.445 29.577 122.664 29.8788 122.966C30.4824 123.57 33.6926 124.173 34.9546 123.954C35.4759 123.844 36.0247 123.542 36.1619 123.268C36.3265 123.021 36.8204 121.265 37.2868 119.372C37.7532 117.506 38.6861 114.186 39.3445 111.991C39.9756 109.796 40.6615 107.272 40.8536 106.367C41.3474 103.87 41.4023 103.788 41.7864 104.913C42.39 106.614 43.5973 108.425 44.5027 109.001C45.7099 109.714 47.1915 109.659 51.554 108.699L55.2305 107.876L56.2731 109.056C56.8218 109.687 57.837 110.949 58.4681 111.854C59.1265 112.76 60.0868 113.967 60.6356 114.516L61.6507 115.558L60.7453 116.107C59.5107 116.875 57.3431 119.235 56.8767 120.36C55.8615 122.829 56.6298 123.844 59.5655 123.872C62.9677 123.872 67.5771 122.445 69.4977 120.771C70.1562 120.195 70.8421 119.866 71.4183 119.811C72.6255 119.756 74.8204 118.439 75.232 117.561C75.4789 116.985 75.2594 116.08 73.5858 111.086C72.5157 107.876 71.5554 104.94 71.4731 104.556C71.2811 103.651 71.6103 103.376 73.3937 102.965C75.2045 102.526 76.6861 101.319 77.0703 99.9192C77.3995 98.6846 76.9879 96.325 75.7258 92.2643L74.9302 89.7127L75.5887 86.5575C77.6739 76.7625 77.4818 69.135 74.9851 60.465C73.284 54.5661 71.1165 50.5603 68.0435 47.5148C65.6291 45.1278 62.9951 43.5639 59.2912 42.2743C56.959 41.4787 56.6847 41.314 56.2182 40.3812C55.9164 39.805 55.2031 38.927 54.572 38.4057C53.5569 37.5003 53.4745 37.3631 53.4745 35.9913C53.4745 34.6469 53.5569 34.4274 54.6818 33.2476C57.2334 30.5314 58.1114 27.431 57.0962 24.8794C56.6023 23.6447 56.5749 23.2331 56.8218 20.901C57.206 17.0873 57.1785 17.1422 58.2211 16.9501C59.4283 16.7306 61.1294 15.2765 61.733 13.932C62.4464 12.3407 62.419 9.62447 61.6782 8.088C60.9374 6.55154 59.2637 5.15225 57.3431 4.41145C56.4926 4.10965 53.8861 3.42373 51.5265 2.92986C49.167 2.436 45.8471 1.58546 44.1734 1.03672C40.3048 -0.225372 37.177 -0.335121 34.9546 0.707481ZM44.0088 3.61578C45.5178 4.10965 48.7554 4.93275 51.1973 5.42662C57.2608 6.66128 59.0991 7.64901 59.7576 10.0909C60.1966 11.7097 59.2912 13.8223 57.9468 14.3436C57.5352 14.4808 56.6847 14.618 56.0262 14.6454C55.3677 14.6454 54.7641 14.7826 54.6818 14.9198C54.5994 15.0295 54.5171 16.5111 54.4897 18.1299C54.4623 19.7761 54.3525 21.2028 54.2702 21.2851C54.1879 21.3674 53.4197 21.0656 52.5966 20.6266C51.746 20.1602 50.1547 19.5566 49.0298 19.2822C46.5056 18.6237 41.7864 18.1299 39.7012 18.2945C34.7626 18.7061 35.0918 18.7061 35.0918 18.1299C35.0918 17.8281 35.3662 16.5386 35.668 15.249C36.3265 12.6974 36.1619 11.5725 35.1467 11.5725C33.4731 11.5725 32.403 7.51183 33.5005 5.39919C34.0492 4.38402 35.2839 3.20423 36.1893 2.82011C37.424 2.29882 41.0456 2.65549 44.0088 3.61578ZM43.5973 20.9285C45.1063 21.0931 47.2464 21.4223 48.3438 21.6967L50.3193 22.1357L50.4839 23.8368C50.7034 26.114 51.2522 26.9371 52.5966 26.9371C53.1727 26.9371 53.9135 27.1292 54.2702 27.3761C54.7915 27.7602 54.8738 27.9797 54.7092 28.8303C54.4348 30.3667 53.3374 31.8209 52.0478 32.3422L50.9229 32.7812L51.115 36.3754C51.1973 38.3509 51.3619 40.2714 51.4442 40.6007C51.6088 41.1494 51.0601 41.8354 47.4933 45.3473C45.216 47.5971 43.1583 49.4354 42.9388 49.4354C42.2529 49.4354 41.7316 48.3653 41.1828 45.7863L40.6615 43.3993H42.2254C44.0363 43.3993 45.7922 42.8505 47.0269 41.9177C47.9049 41.2317 48.8926 39.613 48.6456 39.2288C48.5633 39.1191 47.9323 39.3935 47.2189 39.8325C43.707 41.9725 40.1402 41.7256 37.863 39.1465C35.6954 36.6498 34.7352 33.3574 34.7626 28.3913C34.79 26.0043 34.6803 24.7422 34.4059 24.0837C33.8846 22.849 33.8846 21.8887 34.4059 21.4498C35.3113 20.709 39.3994 20.462 43.5973 20.9285ZM10.7553 29.1321C11.6059 29.7906 11.9077 30.7234 12.3192 33.6592C12.4564 34.8664 12.6485 36.1833 12.7308 36.5675C12.8131 37.1711 12.6485 37.3631 11.3315 37.9942C9.49323 38.8996 8.75243 39.9971 8.75243 41.8354C8.75243 43.0426 8.80731 43.1249 9.27373 42.878C9.5481 42.7133 10.042 42.1646 10.3438 41.6433C10.7279 40.9848 11.4412 40.4086 12.5387 39.8599C13.6362 39.3112 14.6788 38.4332 15.8586 37.1162C16.9286 35.909 17.8066 35.1682 18.1358 35.1682C18.5474 35.1682 18.6297 35.2505 18.4377 35.4974C18.0535 36.0187 17.2853 38.0491 16.5719 40.5184C15.694 43.509 14.5965 45.8137 13.9654 46.0058C13.5813 46.1155 13.4167 46.4173 13.4167 46.9935C13.4167 48.4202 10.481 50.9993 8.03907 51.7401C7.57265 51.8772 7.40803 51.7401 7.1611 50.8346C6.96904 50.2585 6.74954 48.9964 6.66723 48.0361C6.53005 46.774 6.31055 46.0881 5.87156 45.5942C4.71921 44.3321 4.08817 42.631 3.53943 39.366C2.7712 34.7841 2.88094 31.6014 3.78636 31.6014C4.1156 31.6014 4.91127 34.153 4.91127 35.2231C4.91127 36.2108 5.35026 37.0888 5.87156 37.0888C6.66723 37.0888 6.88673 35.3602 6.4203 32.6989C5.92644 30.0924 5.98131 29.4064 6.69467 29.4064C7.21597 29.4064 7.4629 30.0649 7.92933 32.5617C8.28601 34.6469 8.80731 35.7169 9.43836 35.7169C10.234 35.7169 10.234 33.6043 9.41092 29.3241C9.21886 28.4187 9.74016 28.3364 10.7553 29.1321ZM54.7641 43.9754C54.7092 44.9906 54.4074 46.2801 54.133 46.8563C53.6666 47.8166 53.4197 47.9538 51.3345 48.6397C50.0998 49.0238 48.9749 49.4354 48.8926 49.5451C48.728 49.6823 49.1944 53.4686 49.5236 54.6758C49.6059 55.0051 48.8377 55.5264 46.6153 56.6787C43.6521 58.2152 43.2131 58.6542 43.9814 59.2852C44.3106 59.5596 45.0514 59.3401 47.6854 58.2152C49.4688 57.4469 51.1424 56.6513 51.3619 56.4866C51.6911 56.2123 51.7186 55.8007 51.5265 54.2368C51.4168 53.1668 51.2522 51.987 51.1698 51.6029C51.0601 50.9718 51.1424 50.8621 52.185 50.5328C55.2031 49.6274 56.3554 48.3653 56.6847 45.5668C56.767 44.826 56.9316 44.2224 57.0413 44.2224C57.5078 44.2224 60.3612 45.3198 61.8977 46.0881C67.0558 48.722 70.7598 54.2643 72.9547 62.7422C74.8479 70.0679 74.7381 78.9849 72.6804 88.478C72.3785 89.8499 72.0767 91.0022 72.0219 91.0845C71.9396 91.1394 70.1836 91.112 68.1258 91.0022L64.3944 90.8102L64.5865 86.9141C64.6688 84.8015 64.9432 81.5914 65.1352 79.7806C65.5468 76.1863 65.8486 75.6376 67.3576 75.3358C67.8789 75.2535 68.2905 75.0614 68.2905 74.9517C68.2905 74.4578 66.3424 73.5249 65.5468 73.6347C64.7785 73.7444 64.7511 73.7444 64.1749 71.4123C63.4616 68.4766 60.9648 60.0809 60.4161 58.6816C59.9496 57.5018 59.785 57.4469 59.2637 58.2426C58.9894 58.709 58.9619 59.8065 59.0717 63.2635C59.1814 65.678 59.3186 68.2022 59.4009 68.8332C59.5655 70.2325 60.4709 69.9307 49.0846 72.3452C44.4752 73.3329 40.1128 74.2657 39.372 74.4304C38.3843 74.6773 37.6983 75.0614 36.8478 75.912C35.2565 77.5033 35.0644 78.8203 35.9149 81.9206C36.2716 83.1279 36.8752 85.5972 37.2868 87.408L38.0276 90.6456L36.7655 90.5084C36.0796 90.3986 35.037 90.2066 34.4882 90.0419L33.4456 89.7401V84.8838C33.4456 79.9452 33.7749 74.3206 34.2962 69.8758C34.8723 64.9646 35.9698 58.3523 36.2991 57.9682C36.4637 57.7487 39.5092 55.1422 43.076 52.1516C49.4962 46.774 51.307 45.0455 53.1453 42.4664C54.0507 41.2317 54.133 41.1769 54.5171 41.6433C54.7915 42.0274 54.8464 42.6859 54.7641 43.9754ZM39.0702 46.7191C39.3445 47.844 39.8384 49.2982 40.2225 49.9841L40.881 51.2188L40.003 51.9047C36.985 54.1819 34.3236 56.5964 34.0492 57.2823C33.6651 58.2975 32.7871 63.6477 32.0463 69.6015C31.6622 72.7567 31.4427 76.6802 31.333 81.7286C31.2507 85.8441 31.086 89.2188 30.9763 89.2188C30.8666 89.2188 29.9337 88.9719 28.946 88.6701L27.1351 88.0939V82.9632C27.1626 74.8145 27.5741 68.504 28.5344 62.4679C29.385 57.0903 29.4398 55.3069 28.699 55.5538C28.0406 55.7733 27.0803 57.9957 26.4218 61.0137C26.0377 62.7148 25.7084 64.1141 25.681 64.1415C24.9951 64.4982 19.1784 66.7755 18.1084 67.1047C14.0752 68.2845 11.7979 66.995 9.60298 62.3307C8.77987 60.5199 6.55748 54.6758 6.55748 54.2368C6.55748 54.2094 7.13366 54.0996 7.87445 53.9899C9.63041 53.7704 12.3192 52.4534 13.7734 51.109L15.008 49.9841L16.8463 54.0722C17.8615 56.3495 18.9864 58.4347 19.3156 58.7639L19.9467 59.3401L20.3857 58.7365C20.9344 57.9134 20.9344 57.3097 20.3857 56.2123L19.9192 55.3617L21.1265 54.2917C25.4341 50.4505 28.0954 48.6397 31.3879 47.2679C34.5705 45.9509 34.4333 45.9509 34.3236 47.5148C34.1864 49.3256 34.6528 50.6152 35.8601 51.6578C36.7655 52.4534 36.8478 52.4809 37.0399 52.0144C37.1222 51.7126 37.0399 51.1365 36.8204 50.6975C36.1344 49.3805 36.4362 46.4722 37.3965 45.0455C38.3294 43.6462 38.4117 43.7559 39.0702 46.7191ZM62.5013 74.4304C62.8305 75.6376 63.0226 76.8722 62.9403 77.1466C62.8031 77.613 62.6659 77.5856 61.3764 76.7899C60.1966 76.0491 59.7027 75.912 58.276 75.912C56.8218 75.912 56.4103 76.0491 55.5049 76.7351C54.2702 77.6679 53.8861 78.1069 53.4197 79.1221L53.0904 79.8354L52.1301 79.0123C50.3467 77.421 48.5633 77.0643 46.6976 77.8325C45.3807 78.3813 44.7496 78.9574 44.1186 80.1921C42.829 82.7437 42.9662 86.6123 44.5301 92.2369C45.7922 96.8463 46.4507 98.5199 47.7402 100.441C49.0572 102.389 50.4565 103.212 52.5966 103.212C54.3251 103.212 55.0659 102.937 56.328 101.84C57.2608 101.017 57.3157 100.989 57.3157 101.538C57.3157 102.416 58.5229 103.486 59.5107 103.486C60.0594 103.486 60.3338 103.623 60.3338 103.925C60.3338 104.144 60.1966 104.254 60.0594 104.172C59.8948 104.09 57.0688 104.693 53.7489 105.516C50.429 106.367 47.411 107.053 47.0543 107.053C46.0117 107.053 44.7771 105.818 44.1734 104.144C43.6521 102.773 42.1705 96.9835 38.933 83.8138C38.2196 80.9603 37.8355 78.8477 37.9453 78.4087C38.2745 77.0369 39.2348 76.7076 48.7005 74.787C53.6666 73.7719 58.4681 72.8116 59.3735 72.6195C62.0074 72.0708 61.8154 71.961 62.5013 74.4304ZM60.5258 79.0946C61.3764 79.9177 61.98 81.0426 61.98 81.8658C61.98 82.2224 61.5684 83.1279 61.0746 83.8686C59.5107 86.1733 59.5655 87.1611 61.1569 86.338L61.98 85.899V89.356V92.7856L60.6081 93.7734C59.8673 94.2947 59.0168 95.0629 58.7424 95.447L58.2486 96.1329L56.8218 89.3012C55.0659 81.0152 55.0659 80.439 56.3554 79.1495C57.2608 78.2441 57.4255 78.1892 58.5778 78.3264C59.346 78.4087 60.0868 78.6831 60.5258 79.0946ZM49.9352 80.3019C50.9229 80.8232 51.8283 82.2224 51.8283 83.2376C51.8283 83.6492 51.2796 85.1307 50.5937 86.53C49.4139 88.9719 49.1121 90.0419 49.5785 90.0419C49.9626 90.0419 51.746 88.0391 52.5966 86.6672L53.4197 85.3502L53.7215 86.2557C54.2428 87.7098 54.4074 90.1517 54.0507 91.1669C53.8861 91.6882 53.2002 92.7856 52.5142 93.6087C50.3193 96.2701 51.3345 97.0932 53.8861 94.6788L55.3402 93.3069L55.6421 94.2124C56.52 96.9835 56.2182 98.8217 54.7092 100.166C52.7337 101.895 50.429 100.962 48.8377 97.7517C46.2861 92.6759 44.8594 85.2679 45.8471 82.0304C46.4233 80.0824 48.1243 79.369 49.9352 80.3019ZM74.793 98.3004C74.9302 99.4254 74.8753 99.6174 74.1894 100.139C72.845 101.209 72.7901 101.044 72.7901 97.0932C72.8175 92.5113 73.0919 91.9625 73.9699 94.8708C74.3266 96.0506 74.7107 97.6145 74.793 98.3004ZM70.0739 93.7734C70.5952 93.9105 70.6226 94.13 70.6226 97.2578C70.6226 100.578 70.6226 100.605 69.6349 102.389C68.7843 103.925 67.0558 105.654 66.7266 105.297C66.6717 105.242 66.754 104.638 66.946 103.925C67.193 102.937 67.193 102.389 66.9186 101.428C66.5071 99.9741 66.2053 100.056 65.7937 101.73C65.4096 103.184 63.2969 105.681 61.98 106.23C60.7453 106.751 60.663 106.394 61.7056 104.94C62.6659 103.623 63.0774 101.593 62.6933 100.056C62.5013 99.3156 61.4312 99.0687 61.4312 99.782C61.4312 100.386 60.4161 101.291 59.785 101.291C58.907 101.291 59.0991 100.084 60.3338 97.834C60.9922 96.6542 62.0348 95.3098 62.8854 94.5416L64.3121 93.2795L66.9186 93.4441C68.3453 93.5539 69.772 93.691 70.0739 93.7734Z" fill="black"/>
<path d="M38.9607 9.32265C38.6314 9.95369 38.8509 10.8591 39.6191 12.1212C40.4697 13.4382 41.0184 13.9046 42.9116 14.7551C44.9419 15.688 49.5239 16.0447 50.1275 15.3313C50.4293 14.9746 50.3744 14.8375 49.7159 14.5082C49.3044 14.2887 48.4538 14.0418 47.8228 13.932C45.2437 13.5479 43.1036 12.6699 41.7592 11.4627C41.0459 10.8042 40.2502 9.95369 40.0581 9.54214C39.5917 8.6916 39.3173 8.63672 38.9607 9.32265Z" fill="black"/>
<path d="M36.0811 23.727C35.8067 23.9191 35.6147 24.3306 35.6695 24.6325C35.7519 25.044 36.0811 25.1812 37.1511 25.2909C38.8797 25.4556 38.962 25.8397 37.8645 27.9523C36.7945 29.9826 36.7396 31.2447 37.7273 31.6014C38.7699 32.013 40.4984 31.9307 41.4313 31.4368C42.6111 30.8332 42.0349 30.2296 40.2789 30.2296C39.5381 30.2296 38.9345 30.1747 38.9345 30.0924C38.9345 30.0101 39.1815 29.5985 39.5107 29.1595C40.6905 27.5408 40.8551 25.3733 39.8674 24.2209C39.2638 23.4801 38.962 23.3704 37.8645 23.3704C37.1511 23.3704 36.3555 23.535 36.0811 23.727Z" fill="black"/>
<path d="M43.3233 24.1934C42.9392 24.9068 43.1587 25.1263 44.6952 25.5378C46.8627 26.1414 47.0547 26.1414 47.4114 25.7573C47.6583 25.4281 47.6035 25.2086 47.0822 24.605C46.5883 24.0288 46.1219 23.8093 45.0518 23.727C43.8172 23.5898 43.6251 23.6447 43.3233 24.1934Z" fill="black"/>
<path d="M44.1465 33.522C43.2411 33.8513 41.8144 34.0433 40.5248 34.0433C39.3451 34.0708 38.3848 34.1805 38.3848 34.3177C38.3848 34.9213 39.8664 36.2657 40.7992 36.5126C41.8967 36.8144 43.5978 36.5401 44.366 35.9639C45.2989 35.2505 46.0397 34.2079 46.0671 33.5769C46.0671 32.8635 46.122 32.8635 44.1465 33.522Z" fill="black"/>
</svg>
