<svg width="31" height="30" viewBox="0 0 31 30" fill="none" xmlns="http://www.w3.org/2000/svg">
<path d="M22 24.0642C22 21.9425 21.1571 19.9076 19.6569 18.4074C18.1566 16.9071 16.1217 16.0642 14 16.0642M14 16.0642C11.8783 16.0642 9.84344 16.9071 8.34315 18.4074C6.84285 19.9076 6 21.9425 6 24.0642M14 16.0642C16.7614 16.0642 19 13.8256 19 11.0642C19 8.30279 16.7614 6.06421 14 6.06421C11.2386 6.06421 9 8.30279 9 11.0642C9 13.8256 11.2386 16.0642 14 16.0642ZM26 23.0642C26 19.6942 24 16.5642 22 15.0642C22.6574 14.571 23.1831 13.9233 23.5306 13.1785C23.878 12.4337 24.0365 11.6147 23.992 10.794C23.9475 9.97334 23.7014 9.1763 23.2755 8.47341C22.8495 7.77052 22.2569 7.18347 21.55 6.76421" stroke="currentColor" stroke-width="2" stroke-linecap="round" stroke-linejoin="round"/>
</svg>
