<svg width="24" height="24" viewBox="0 0 24 24" fill="none" xmlns="http://www.w3.org/2000/svg">
<g clip-path="url(#clip0_97_314)">
<path d="M6.21249 5.63604C5.97818 5.40173 5.59827 5.40173 5.36396 5.63604C5.12965 5.87035 5.12965 6.25025 5.36396 6.48457L10.8794 12L5.36396 17.5154C5.12965 17.7497 5.12965 18.1296 5.36396 18.364C5.59827 18.5983 5.97818 18.5983 6.21249 18.364L11.7279 12.8485L17.2434 18.364C17.4776 18.5982 17.8576 18.5983 18.0919 18.364C18.3262 18.1296 18.3262 17.7497 18.0919 17.5154L12.5765 12L18.0919 6.48457C18.3262 6.25029 18.3262 5.87035 18.0919 5.63604C17.8576 5.40173 17.4776 5.40176 17.2434 5.63604L11.7279 11.1515L6.21249 5.63604Z" fill="currentColor"/>
</g>
<defs>
<clipPath id="clip0_97_314">
<rect width="24" height="24" fill="white"/>
</clipPath>
</defs>
</svg>
