<svg width="25" height="24" viewBox="0 0 25 24" fill="none" xmlns="http://www.w3.org/2000/svg">
<path d="M10.3982 2.81984L3.46815 8.36983C2.68815 8.98983 2.18815 10.2999 2.35815 11.2799L3.68815 19.2398C3.92815 20.6598 5.28814 21.8098 6.72814 21.8098H17.9282C19.3582 21.8098 20.7281 20.6498 20.9681 19.2398L22.2981 11.2799C22.4581 10.2999 21.9581 8.98983 21.1881 8.36983L14.2581 2.82985C13.1881 1.96985 11.4582 1.96984 10.3982 2.81984Z" stroke="#8E8E8E" stroke-width="1.5" stroke-linecap="round" stroke-linejoin="round"/>
<path d="M12.3281 15.5C13.7088 15.5 14.8281 14.3807 14.8281 13C14.8281 11.6193 13.7088 10.5 12.3281 10.5C10.9474 10.5 9.82812 11.6193 9.82812 13C9.82812 14.3807 10.9474 15.5 12.3281 15.5Z" stroke="#8E8E8E" stroke-width="1.5" stroke-linecap="round" stroke-linejoin="round"/>
</svg>
