<svg width="14" height="15" viewBox="0 0 14 15" fill="none" xmlns="http://www.w3.org/2000/svg">
<path d="M11.6673 6.33335C11.6673 9.24594 8.43623 12.2793 7.35123 13.2161C7.25016 13.2921 7.12712 13.3332 7.00065 13.3332C6.87419 13.3332 6.75115 13.2921 6.65007 13.2161C5.56507 12.2793 2.33398 9.24594 2.33398 6.33335C2.33398 5.09568 2.82565 3.90869 3.70082 3.03352C4.57599 2.15835 5.76297 1.66669 7.00065 1.66669C8.23833 1.66669 9.42531 2.15835 10.3005 3.03352C11.1757 3.90869 11.6673 5.09568 11.6673 6.33335Z" stroke="#F23D4C" stroke-linecap="round" stroke-linejoin="round"/>
<path d="M7.00065 8.08335C7.96715 8.08335 8.75065 7.29985 8.75065 6.33335C8.75065 5.36686 7.96715 4.58335 7.00065 4.58335C6.03415 4.58335 5.25065 5.36686 5.25065 6.33335C5.25065 7.29985 6.03415 8.08335 7.00065 8.08335Z" stroke="#F23D4C" stroke-linecap="round" stroke-linejoin="round"/>
</svg>
