<svg width="24" height="24" viewBox="0 0 24 24" fill="none" xmlns="http://www.w3.org/2000/svg">
<path d="M11.9972 2.3999C15.7759 2.3999 18.8899 5.20176 19.1785 8.82638L19.1946 9.09305L19.2 9.36247L19.1988 13.6775L20.3093 16.3441C20.3364 16.4091 20.3576 16.4761 20.3729 16.5444L20.3911 16.6479L20.4015 16.8054C20.4015 17.343 20.0457 17.8063 19.5025 17.9611L19.3629 17.9933L19.2015 18.0054L14.9995 18.0047L14.9935 18.1983C14.8914 19.7627 13.5902 20.9999 12 20.9999C10.4094 20.9999 9.10796 19.7621 9.00638 18.1972L8.99953 18.0047L4.79868 18.0054C4.69314 18.0054 4.58828 17.9915 4.48681 17.9641L4.33746 17.9131C3.84452 17.7079 3.55416 17.2069 3.61464 16.6507L3.63994 16.4979L3.69085 16.3441L4.79881 13.6811L4.80011 9.35127L4.80526 9.08179C4.95241 5.34128 8.12523 2.3999 11.9972 2.3999ZM13.7995 18.0047H10.1995L10.2083 18.1744C10.2906 19.0296 10.9713 19.7099 11.8267 19.7916L12 19.7999C12.9356 19.7999 13.7046 19.086 13.7917 18.1733L13.7995 18.0047ZM11.9972 3.5999C8.85012 3.5999 6.27259 5.90837 6.02057 8.86188L6.0047 9.11658L6.00001 9.36247V13.7999L5.95392 14.0305L4.79867 16.8054L19.1479 16.8078L19.2023 16.8053L18.0461 14.0305L18 13.7999L18.0001 9.37479L17.9952 9.12987C17.8691 6.04178 15.2336 3.5999 11.9972 3.5999Z" fill="currentColor"/>
</svg>
