<svg width="17" height="16" viewBox="0 0 17 16" fill="none" xmlns="http://www.w3.org/2000/svg">
<path d="M12.5007 2H10.5007C10.1325 2 9.83398 2.29848 9.83398 2.66667V13.3333C9.83398 13.7015 10.1325 14 10.5007 14H12.5007C12.8688 14 13.1673 13.7015 13.1673 13.3333V2.66667C13.1673 2.29848 12.8688 2 12.5007 2Z" stroke="#0D0D0D" stroke-width="1.33333" stroke-linecap="round" stroke-linejoin="round"/>
<path d="M6.50065 2H4.50065C4.13246 2 3.83398 2.29848 3.83398 2.66667V13.3333C3.83398 13.7015 4.13246 14 4.50065 14H6.50065C6.86884 14 7.16732 13.7015 7.16732 13.3333V2.66667C7.16732 2.29848 6.86884 2 6.50065 2Z" stroke="#0D0D0D" stroke-width="1.33333" stroke-linecap="round" stroke-linejoin="round"/>
</svg>
