<svg width="82" height="124" viewBox="0 0 82 124" fill="none" xmlns="http://www.w3.org/2000/svg">
<path d="M37.4172 0.328812C33.0369 1.54226 30.0773 4.44269 28.8934 8.58616C28.3903 10.2731 28.3903 13.5287 28.8639 14.683C28.9822 15.0085 28.5679 15.4229 27.384 16.1332C26.4666 16.6659 25.2827 17.5242 24.7204 17.9978C23.4773 19.0928 21.8791 22.23 21.228 24.9233C20.7545 26.8175 20.4289 27.3206 17.1733 31.4049C12.7339 36.9098 9.24154 42.0891 7.49536 45.7294C6.25232 48.2451 6.13394 48.7483 6.01555 51.1456C5.68999 58.0415 9.12316 61.4451 16.463 61.4451C18.8603 61.4451 23.5069 60.7939 28.8639 59.6693C30.4916 59.3437 31.8235 59.1069 31.8531 59.1366C31.8827 59.1957 32.0898 60.2908 32.2674 61.593C32.4746 62.8953 33.0369 65.8253 33.5105 68.0746C33.984 70.3535 34.3688 72.3069 34.3688 72.4253C34.3688 72.662 29.515 73.8755 20.7545 75.7696C11.2837 77.8414 2.75996 80.0019 1.93127 80.5346C0.777016 81.2745 0.0371094 82.7248 0.0371094 84.2934C0.0371094 85.8916 0.185091 86.0691 6.72586 93.409C11.6092 98.8547 12.7635 99.6242 16.0783 99.6242H18.0908V105.514C18.0908 108.74 18.1796 111.966 18.2684 112.706L18.446 114.008L17.1733 114.422C12.4675 115.991 9.71508 120.194 12.4675 121.614C13.385 122.088 14.0657 122.147 18.5348 121.999C21.5832 121.91 24.2172 121.703 25.1939 121.437C26.3186 121.111 26.9401 121.081 27.1769 121.289C27.384 121.466 28.4495 121.555 29.6334 121.466C32.9481 121.289 32.9185 121.318 33.2145 114.215C33.4809 107.319 34.0432 97.8484 34.2208 97.3453C34.28 97.1677 35.0199 96.8718 35.9078 96.6942C36.766 96.487 37.7427 96.2798 38.0683 96.191C38.6306 96.0431 38.6602 96.191 38.7194 101.311C38.7786 107.467 39.1929 114.925 39.5185 115.665C39.6961 116.08 39.6369 116.198 39.2225 116.198C38.5122 116.198 35.7302 117.5 34.7239 118.299C33.6288 119.128 32.593 120.904 32.593 121.91C32.593 122.62 32.8002 122.828 34.0136 123.39C35.2566 123.982 35.8486 124.041 39.8441 123.982C42.7149 123.952 44.8458 123.775 45.9113 123.508C46.9472 123.212 47.7167 123.153 48.0422 123.331C49.2557 123.982 52.896 123.36 53.8135 122.354C54.2574 121.851 54.3758 120.963 54.5534 115.991C54.6422 112.795 54.8198 108.681 54.9381 106.816L55.1749 103.413L57.1875 103.531C58.2825 103.59 59.2888 103.708 59.3776 103.797C59.5552 104.004 59.1112 111.64 58.6081 116.76L58.2529 120.164L59.0224 120.815C60.4726 122.058 64.113 122.029 65.1488 120.786C65.3264 120.549 65.6224 119.454 65.7704 118.359C66.3031 114.186 66.9246 107.586 66.9246 105.751V103.827L68.1085 103.649C68.7596 103.561 69.8251 103.383 70.4466 103.294L71.6008 103.146L71.8968 104.567C72.0744 105.336 72.5479 108.503 72.9623 111.611C74.2053 120.815 74.4125 121.229 77.3425 121.229C79.3846 121.229 80.6573 120.667 81.2492 119.483C81.6636 118.743 81.6636 118.151 81.2492 114.393C81.0124 112.055 80.5389 108.118 80.2133 105.632L79.5918 101.134L80.4797 100.009C82.1963 97.8188 82.4331 95.0664 81.1308 92.4027C80.4797 91.0413 79.0887 90.1534 77.6089 90.1534C77.1649 90.1534 76.721 90.0646 76.6322 89.9758C76.5434 89.887 76.6618 89.1175 76.869 88.2888C77.1057 87.4306 77.3721 84.9445 77.4313 82.7544C77.5201 80.5642 77.7272 77.0719 77.9344 74.9705C78.26 71.3302 78.2896 71.2118 78.9703 71.2118C79.6214 71.2118 79.651 71.123 79.651 69.1401C79.651 65.6181 78.4968 58.9886 77.1057 54.342C74.4717 45.6703 69.0852 40.4613 59.6439 37.4721C57.6018 36.821 57.5722 36.7914 57.0395 35.3412L56.5363 33.891L57.6018 32.7071C59.5848 30.4874 60.6502 26.6991 60.1175 23.7986C59.9399 22.9699 59.8511 22.2596 59.8807 22.23C59.9399 22.1708 60.5022 21.8749 61.1534 21.5493C64.5273 19.8327 65.9775 16.3108 65.0009 12.1377C63.9058 7.40231 61.1238 5.03461 55.1157 3.73238C53.6655 3.40682 51.1498 2.66692 49.5516 2.07499C45.4082 0.565582 44.0171 0.210426 41.3239 0.0328445C39.7257 -0.0559387 38.453 0.0328445 37.4172 0.328812ZM44.8754 3.28844C45.3786 3.43642 47.1247 4.02834 48.7821 4.64986C50.4691 5.30098 53.0144 6.07048 54.4646 6.36645C57.7202 7.07675 59.1704 7.78706 60.5022 9.38526C63.2547 12.5817 63.0771 17.0507 60.0879 19.0336C59.0224 19.7439 58.5193 19.8623 56.8323 19.8623C55.0565 19.8623 54.731 19.7735 53.7247 18.9448C51.8601 17.465 50.9722 17.1395 47.6871 16.7843C43.9579 16.37 42.7741 16.074 41.4423 15.1861C40.1696 14.3574 39.1042 12.2857 39.1042 10.6283C39.1042 9.0597 38.8082 8.88213 37.7723 9.82921C37.062 10.5099 36.9732 10.7171 37.1212 11.8713C37.7131 16.1332 40.6728 18.3529 46.7104 19.1224C50.1731 19.5664 51.4458 19.9215 51.8009 20.5135C51.9489 20.7798 51.9785 22.3188 51.9193 23.917C51.7122 27.2318 51.9489 27.587 53.7839 26.6991C55.1453 26.0775 56.0628 26.1071 56.7139 26.8175C57.7794 28.0013 56.5659 30.9905 54.4646 32.3223C53.3399 33.0327 53.1032 33.595 53.4879 34.6309C53.5767 34.8972 53.9023 35.1044 54.2278 35.1044C54.6126 35.1044 54.8198 35.4004 54.9677 36.1403C55.2933 38.0048 53.5471 40.9053 48.0718 47.446C46.5328 49.281 45.1714 50.7904 45.053 50.7904C44.6978 50.7904 42.0638 45.1079 42.0638 44.3088C42.0638 44.1609 42.6853 43.9537 43.4548 43.8353C44.2243 43.7169 45.349 43.3913 45.9409 43.0658C47.5983 42.2371 49.522 39.6918 48.0718 40.2837C44.6682 41.6452 42.6853 41.9115 40.5248 41.2604C38.8082 40.7573 36.914 38.9223 35.819 36.7026C35.0199 35.1044 34.8423 34.3645 34.7239 32.0264C34.6647 30.4874 34.6647 28.7708 34.7831 28.1789C35.0495 26.7878 36.6181 24.9825 37.4468 25.1009C38.3938 25.2488 38.3642 26.048 37.3284 28.5932C36.766 29.9842 36.4701 31.1681 36.5885 31.5233C36.7956 32.2632 38.1867 32.7367 40.0512 32.7367C41.2647 32.7367 41.531 32.6479 41.7382 32.056C42.0934 31.1977 41.7678 30.9313 40.1992 30.7538L38.8674 30.6058L39.6073 28.978C40.9983 25.9296 40.5544 23.5619 38.4826 23.1179C37.8315 22.9699 37.6539 22.7924 37.7427 22.4372C37.8315 22.1412 37.9795 21.0462 38.0683 19.9807C38.453 16.3108 36.9436 14.4758 33.3329 14.1503C31.5275 14.0023 31.1132 13.5287 31.1132 11.6642C31.1132 8.58616 33.2441 5.153 35.9965 3.76198C38.1867 2.66692 41.7086 2.48933 44.8754 3.28844ZM34.28 17.8202C33.836 18.1753 32.741 18.6489 31.7939 18.8265C29.367 19.3296 27.9464 19.9511 27.2657 20.8094C26.6145 21.6381 26.7329 22.082 27.5616 22.082C28.7159 22.082 34.132 20.3359 35.5822 19.5072C35.9374 19.3 35.4638 21.4901 35.0791 21.8157C34.8423 21.9933 34.1024 22.23 33.3921 22.2892C32.7114 22.3484 31.6755 22.5556 31.1132 22.7332C29.8701 23.0883 27.8576 24.9529 27.8576 25.6928C27.8576 26.4919 29.1894 26.3735 30.3437 25.4856C30.8764 25.0713 31.7643 24.6569 32.3266 24.5681C32.8889 24.4498 33.7176 24.1834 34.1912 23.9466C34.9903 23.5323 34.9607 23.6211 33.688 25.2488C30.5804 29.2443 28.4791 31.4937 27.1769 32.1152C26.2298 32.5591 25.7858 33.0031 25.6379 33.5654C25.2531 35.134 21.5536 44.4568 20.3993 46.7949C19.7482 48.0972 18.6827 49.9321 18.0612 50.8496C16.6998 52.8621 16.5814 53.75 17.6173 53.75C18.2684 53.75 20.133 52.0334 20.9321 50.6128C21.228 50.1393 21.3168 50.3169 21.4944 51.8263C21.7312 53.6908 21.3168 57.4496 20.7841 57.9823C19.985 58.7814 14.8056 59.0182 12.5563 58.3374C9.83347 57.5384 8.44244 54.9931 8.67921 51.2639C8.7976 49.429 9.03437 48.6299 10.159 46.3214C12.3491 41.8227 15.9599 36.6138 20.9025 30.8129C22.5599 28.8596 22.8558 28.2973 23.8029 25.2784C24.3948 23.4435 25.1643 21.5197 25.4899 20.987C26.1114 19.9807 27.828 18.5897 29.7813 17.5538C31.0244 16.8731 34.7239 16.3996 34.9311 16.8731C34.9903 17.0211 34.6943 17.465 34.28 17.8202ZM33.1553 36.525C33.5105 37.5313 33.7768 38.3896 33.7768 38.4784C33.7768 38.5376 32.6226 38.9519 31.202 39.3959C29.7813 39.8398 27.828 40.5501 26.9105 41.0236C25.9634 41.4676 25.1939 41.7932 25.1939 41.7635C25.1939 41.734 25.7858 40.1062 26.5257 38.1824C27.5024 35.5483 28.0648 34.5125 28.6567 34.0685C29.1302 33.743 30.0181 32.9439 30.6692 32.2928L31.8531 31.0793L32.2082 32.8847C32.3858 33.891 32.8298 35.5187 33.1553 36.525ZM60.4726 40.6093C61.9821 41.1716 64.0242 42.0891 65.0009 42.6514C70.0026 45.4631 73.4062 50.3465 75.33 57.5088C76.1291 60.5276 77.1945 67.2755 76.8986 67.5419C76.7802 67.6603 75.3004 67.5715 73.5838 67.3643C71.8376 67.1571 69.4699 67.0683 68.1677 67.1571L65.8592 67.3347L64.9417 63.3984C64.0242 59.6693 62.722 55.3482 62.3668 54.9931C62.0412 54.6971 61.0054 55.9106 61.0054 56.5617C61.0054 56.9168 61.5381 59.5805 62.1596 62.5105C62.8107 65.411 63.4323 68.5778 63.5211 69.5544L63.7578 71.271L61.6861 73.254C60.5614 74.3194 58.3713 76.184 56.8027 77.3678L53.9911 79.5284L52.6888 79.0844C49.8476 78.1373 46.0297 77.1311 45.3194 77.1311C44.8754 77.1311 44.2243 76.8055 43.8396 76.3912C42.8629 75.3553 41.0575 74.349 39.0746 73.7275L37.4172 73.1948L36.3221 68.1338C35.7302 65.3518 34.8423 60.4388 34.3688 57.2128C33.8952 53.9868 33.3921 51.1456 33.2441 50.8792C33.0369 50.524 32.8593 50.6128 32.3266 51.4711C31.8531 52.2406 31.7051 52.9509 31.7051 54.4011V56.2953L28.3903 57.0056C26.5553 57.3608 24.7796 57.7455 24.454 57.8047C23.8917 57.9231 23.8621 57.7751 23.8621 53.0989C23.8621 50.4352 23.7733 47.6532 23.6549 46.9133L23.4477 45.5519L26.0226 44.3384C28.9822 42.977 30.4325 42.4443 33.3921 41.6452L35.523 41.0532L37.4172 42.2963L39.3113 43.5393L40.9983 47.5348C43.07 52.507 44.1355 54.4603 44.7866 54.5787C45.6153 54.7267 54.0503 44.6344 56.0332 41.1124C56.5363 40.2541 57.0987 39.5438 57.3058 39.5438C57.513 39.5438 58.9336 40.0174 60.4726 40.6093ZM73.6134 70.0576L75.8923 70.4127L75.7443 73.106C75.5667 76.2432 75.0044 77.6342 73.2286 79.262C70.7721 81.4521 65.652 84.4413 61.3013 86.1875C59.7623 86.7794 58.3121 87.4306 58.1049 87.6081C57.8682 87.7561 57.3058 88.6736 56.8323 89.6207C56.3588 90.5678 55.4709 91.8996 54.879 92.5507C53.6359 93.9417 51.1202 95.4807 50.114 95.4807C49.4628 95.4807 49.4924 95.4215 50.4987 93.9713C51.5938 92.3731 51.8009 91.7812 51.1794 92.018C48.7525 92.9651 44.9642 94.0305 44.6091 93.9121C43.7212 93.557 44.1355 93.1426 45.7633 92.8171C47.7463 92.4027 48.7229 91.6924 48.4566 90.8341C48.279 90.3014 48.1014 90.2422 47.0064 90.3902C42.5669 91.0709 42.1822 90.183 46.2073 88.5848C49.2557 87.3714 50.4099 86.5131 50.2915 85.566C50.1436 84.6485 48.3382 84.9149 45.8521 86.2171C42.4189 88.0225 41.531 89.0879 41.7086 91.3373C41.7382 91.722 40.6728 92.018 36.6477 92.7875C33.836 93.3498 28.5087 94.4449 24.75 95.244C21.0208 96.0431 17.3213 96.783 16.5814 96.8718C14.0065 97.1677 13.5034 96.8126 7.88011 90.6566C2.43441 84.6781 2.04965 84.027 3.2631 82.9319C3.79583 82.4288 12.7043 79.9427 12.9707 80.2091C13.0299 80.2683 12.3196 80.8306 11.3725 81.4521C8.50164 83.3759 7.61375 86.0691 9.00477 88.644C10.2478 91.0413 13.4442 92.5211 17.2917 92.5211C20.3697 92.5211 30.3733 90.2126 37.3284 87.9041C43.1292 85.9803 45.0234 84.4117 45.4673 81.2153C45.6449 80.0611 45.7633 79.7947 46.1481 79.9131C50.1731 80.9786 52.1561 81.7481 52.5704 82.3696C52.8368 82.7248 53.2512 83.0503 53.4879 83.0503C54.0503 83.0503 61.4493 77.1607 64.3497 74.4378C66.0959 72.7804 66.3327 72.3957 66.3327 71.4486C66.3327 70.4719 66.4215 70.3535 67.4574 70.0872C68.9964 69.6728 70.9497 69.6728 73.6134 70.0576ZM37.3284 76.4208C39.4593 76.9239 41.5014 77.9894 42.2118 78.966C42.4485 79.3508 42.6557 80.1203 42.6557 80.7122C42.6557 81.6593 42.4485 81.9848 41.3239 82.9911C40.1992 83.9678 39.2225 84.4413 35.7598 85.566C28.5679 87.9041 20.1034 89.8575 16.9958 89.8575C12.3787 89.8575 9.41912 86.809 11.846 84.5597C12.3196 84.1158 13.237 83.583 13.8882 83.4055C15.9303 82.7839 17.0254 82.9615 19.7482 84.3821C21.1392 85.1221 22.3231 85.714 22.4119 85.714C22.4711 85.714 22.5303 85.4772 22.5303 85.1516C22.5303 84.4117 19.8666 81.9848 18.3276 81.2745L17.0845 80.7122L17.9428 80.3571C18.446 80.1499 19.8962 79.9723 21.1984 79.9723C23.7733 79.9427 25.2235 80.505 28.2423 82.636C29.0118 83.1983 29.6925 83.6422 29.7813 83.6422C29.8701 83.6422 29.9293 83.2279 29.9293 82.7544C29.9293 81.5705 28.0056 79.6171 25.7562 78.4925L24.158 77.6934L27.4136 77.8118C31.4387 77.9598 33.3033 78.6109 35.7006 80.7122C36.6181 81.5113 37.4764 82.1328 37.5356 82.044C37.6243 81.9553 37.5947 81.4225 37.506 80.8602C37.21 79.3212 34.9311 76.9239 33.2441 76.4208L31.8531 75.9768H33.6288C34.6055 75.9768 36.2629 76.1544 37.3284 76.4208Z" fill="black"/>
<path d="M43.8989 23.8283C43.6622 23.9466 43.5438 24.3906 43.603 24.7457C43.6622 25.3081 44.0765 25.5744 45.7339 26.1368C47.924 26.9063 48.3976 26.7879 48.22 25.604C48.072 24.3906 44.9644 23.1179 43.8989 23.8283Z" fill="black"/>
<path d="M40.3473 35.7555C40.1402 35.9627 39.9922 36.1994 39.9922 36.3178C39.9922 36.4066 41.1464 36.9394 42.5375 37.4721C45.3787 38.5375 46.1186 38.4192 45.2011 37.0281C44.3132 35.6667 41.2352 34.8676 40.3473 35.7555Z" fill="black"/>
</svg>
