<svg width="17" height="16" viewBox="0 0 17 16" fill="none" xmlns="http://www.w3.org/2000/svg">
<path d="M3.83398 3.33333C3.83391 3.09873 3.89575 2.86826 4.01324 2.66519C4.13073 2.46213 4.29972 2.29366 4.50315 2.1768C4.70658 2.05993 4.93724 1.99881 5.17184 1.99961C5.40645 2.00041 5.63669 2.06309 5.83932 2.18133L13.8373 6.84667C14.0392 6.96379 14.2067 7.13183 14.3233 7.334C14.4398 7.53617 14.5013 7.7654 14.5015 7.99876C14.5017 8.23212 14.4406 8.46145 14.3244 8.66382C14.2082 8.8662 14.041 9.03453 13.8393 9.152L5.83932 13.8187C5.63669 13.9369 5.40645 13.9996 5.17184 14.0004C4.93724 14.0012 4.70658 13.9401 4.50315 13.8232C4.29972 13.7063 4.13073 13.5379 4.01324 13.3348C3.89575 13.1317 3.83391 12.9013 3.83398 12.6667V3.33333Z" stroke="currentColor" stroke-width="1.33333" stroke-linecap="round" stroke-linejoin="round"/>
</svg>
