<svg width="70" height="126" viewBox="0 0 70 126" fill="none" xmlns="http://www.w3.org/2000/svg">
<path d="M32.9187 0.400078C30.2608 1.12357 28.572 2.65405 27.3538 5.40891C26.5509 7.21764 26.4678 10.5012 27.2154 11.9204C27.8521 13.1448 28.7658 14.1465 29.2364 14.1465C29.6794 14.1465 29.6794 14.1743 29.2918 15.1761C28.572 17.0962 27.3815 22.0493 27.4092 23.1346C27.4092 23.7746 27.5753 24.7485 27.7414 25.2772C27.9906 25.9451 28.0183 26.6686 27.8521 27.6425C27.7137 28.3939 27.6583 30.3974 27.7414 32.0948C27.9906 36.408 28.7381 38.8289 30.5654 41.2498C31.5067 42.502 31.5344 42.5577 31.0914 43.2255C30.8145 43.6429 30.1778 44.0325 29.4856 44.1995C25.8034 45.1734 23.1732 46.3978 18.522 49.3196L15.6149 51.1562L15.4765 47.3439C15.3935 45.2291 15.2273 43.2812 15.0889 43.0029C14.9505 42.7247 14.9782 42.5299 15.1443 42.5299C15.6703 42.5299 18.2728 39.6637 18.9649 38.2724C19.3802 37.4654 19.7402 36.1854 19.8232 35.2671C19.9616 33.9592 19.8509 33.4862 19.2695 32.3453C18.8819 31.5939 18.4943 30.5087 18.3835 29.9243C18.3005 29.34 17.8575 28.4773 17.4422 28.0043C16.7224 27.1695 16.5563 27.1416 13.6492 26.919C10.853 26.6964 10.5761 26.7242 9.88395 27.2251C9.46866 27.5312 8.88726 27.7817 8.6104 27.7817C8.33354 27.7817 7.66908 28.0878 7.14304 28.4773C6.61701 28.8669 5.75874 29.4791 5.23271 29.813C3.76535 30.7591 2.74097 32.9853 2.74097 35.2671C2.76866 37.4376 3.10089 39.0237 3.8761 40.6933L4.42982 41.9177L3.62692 43.5595C1.88271 47.0378 0.719898 52.798 0.692212 58.252C0.664526 61.3964 0.77527 62.4539 1.19056 63.6504C1.79965 65.4035 3.21163 67.1009 4.78973 67.9357C7.00461 69.1323 14.7013 68.6036 20.6538 66.8505L21.2629 66.6835L21.0968 71.3863C20.986 74.3081 20.8199 76.1447 20.6261 76.256C20.2385 76.5064 11.0744 78.7604 6.61701 79.6787C4.12527 80.2074 2.93478 80.5969 2.27031 81.0978C0.692212 82.2944 0.110807 84.1031 0.858328 85.4666C1.02444 85.8006 3.82073 90.1137 7.08767 95.0391L13.0125 104.027L12.7079 107.979C12.4034 111.902 12.5418 114.74 13.0125 115.047C13.1509 115.13 13.2616 115.325 13.2616 115.464C13.2616 115.631 13.1786 115.687 13.0402 115.603C12.9294 115.547 11.8773 115.603 10.6868 115.714C6.0356 116.243 3.15626 119.388 5.48188 121.363C7.08767 122.727 15.3381 124.869 17.7745 124.535C18.4666 124.424 18.7988 124.508 18.7988 124.73C18.7988 125.704 23.6716 126.456 24.7236 125.676C25.2773 125.259 25.7203 123.367 28.0183 112.125L29.2088 106.42L34.9951 104.973C38.2067 104.166 41.2522 103.415 41.8059 103.331L42.7749 103.164L43.1071 104.556C43.5501 106.448 45.7096 111.902 47.3154 115.213L48.6443 117.941L46.9001 118.775C44.8236 119.777 42.9964 121.697 42.7195 123.172C42.3596 125.036 43.4117 125.732 46.6509 125.732C50.6654 125.732 56.0641 124.508 57.0055 123.367C57.1993 123.144 57.6699 123.061 58.3621 123.144C60.3832 123.422 63.0964 121.948 63.0964 120.584C63.0964 120.222 62.6534 117.495 62.1274 114.546C61.5737 111.596 60.8261 107.172 60.4662 104.723C60.0786 102.274 59.7187 99.9366 59.6633 99.547C59.5526 98.907 59.6633 98.7679 60.6046 98.4896C61.9336 98.1 63.0133 96.7643 63.2348 95.2617C63.4563 93.8147 63.0964 92.9242 61.6844 91.3659L60.5216 90.1137L62.4596 88.0824C67.6923 82.5448 69.4365 78.1482 69.4642 70.3845C69.4642 62.1756 67.2493 54.4397 63.6224 50.0431C61.8228 47.8726 59.0265 45.9247 55.5658 44.4221C53.2125 43.3925 52.7141 43.0864 52.2989 42.2516C51.7451 41.1385 50.7208 39.9698 49.9455 39.5524C49.5026 39.2741 49.4195 38.968 49.4749 37.4097C49.5579 35.6288 49.5856 35.5453 50.8592 34.2653C52.6311 32.4844 53.4617 30.6478 53.6278 28.1712C53.7108 26.6964 53.6278 26.0007 53.2955 25.3051C52.8526 24.4703 52.8526 24.2198 53.2955 21.5206L53.7662 18.6545L54.6798 18.5153C57.9191 17.9866 59.6633 13.3952 58.0022 9.83337C56.5071 6.60545 51.7451 4.07322 48.0352 4.51845C46.7617 4.65758 46.5955 4.60193 45.2943 3.57233C43.3009 1.95838 40.7815 0.817482 38.2898 0.372253C35.5765 -0.128632 34.829 -0.128632 32.9187 0.400078ZM39.3141 3.12711C42.4703 4.10104 44.5745 5.715 44.9621 7.44026C45.2112 8.60899 45.765 8.99857 46.3187 8.44202C46.5679 8.19158 46.7617 7.88549 46.7617 7.74635C46.7617 7.32896 48.7274 6.8559 49.8071 7.02286C54.2922 7.74635 57.3377 11.6421 55.7873 14.6752C55.2336 15.7327 54.2092 16.1222 52.105 16.0666C50.8315 16.0387 50.1947 16.1222 49.8902 16.4283C49.5303 16.8179 49.5856 16.957 50.3608 17.6805L51.2745 18.5153L50.9699 20.2684C50.7761 21.2424 50.5823 22.0772 50.4993 22.1606C50.4162 22.2441 50.1393 22.105 49.8625 21.8545C49.1427 21.1867 46.0141 19.7954 44.1315 19.2945C41.2245 18.5153 36.5732 18.1814 33.6939 18.5432C32.3096 18.7101 31.1191 18.8214 31.0637 18.7658C30.8699 18.571 31.6174 15.9553 32.2819 14.4526C33.1125 12.5047 32.9464 11.9204 31.5067 11.9204C29.7348 11.9204 29.2364 11.1969 29.3749 8.72029C29.4579 7.07851 29.624 6.46632 30.2885 5.38107C31.5067 3.4332 32.9187 2.73753 35.798 2.73753C37.0439 2.73753 38.622 2.90449 39.3141 3.12711ZM40.8369 21.2424C42.1935 21.4928 44.0207 21.8824 44.9067 22.1328L46.5402 22.578L46.3464 24.359C46.0418 27.2251 46.7893 28.3382 48.7274 27.9208C49.2811 27.7817 49.7794 27.893 50.2778 28.1991C50.8869 28.6165 50.9422 28.8112 50.8315 29.6461C50.61 31.0374 49.4195 32.7348 48.3121 33.2635C47.5092 33.6253 47.3431 33.8757 47.2046 34.9888C47.1216 35.6845 47.1216 37.521 47.2046 39.0515L47.3708 41.8342L46.2356 43.1421C44.9898 44.5334 38.3451 50.0431 37.8745 50.0431C37.4592 50.0431 36.5179 47.7057 36.3241 46.1752L36.1579 44.8117L38.3451 44.7004C41.6398 44.5334 43.6055 43.2812 44.1592 40.9994C44.353 40.1924 44.3253 40.1924 43.8269 40.6376C42.5811 41.7229 40.3108 42.5299 38.3728 42.5299C36.1302 42.5299 34.829 42.029 33.3893 40.6376C30.9807 38.328 30.1224 35.3784 30.1501 29.7295C30.1778 27.5034 30.067 25.1938 29.9009 24.5816C29.4026 22.6615 29.5133 21.9659 30.3716 21.6319C32.448 20.7971 37.2377 20.6302 40.8369 21.2424ZM12.5418 30.0356C13.0402 30.9261 13.0402 31.1765 12.7079 32.3174C12.3757 33.6253 11.8773 34.0705 11.8773 33.1244C11.8773 32.874 11.4897 31.8444 11.0468 30.8983C10.5761 29.9243 10.2162 29.0617 10.2162 28.9782C10.2162 28.9226 10.6315 28.8947 11.1298 28.9504C11.822 29.006 12.1265 29.2565 12.5418 30.0356ZM16.0026 29.6182C16.7224 30.5365 16.7224 30.8426 16.0579 30.8426C15.7534 30.8426 15.4211 30.9817 15.3104 31.1765C15.172 31.3991 14.4245 29.6461 14.3691 28.9504C14.3691 28.9226 14.6183 28.8947 14.8951 28.8947C15.1997 28.8947 15.698 29.2287 16.0026 29.6182ZM9.05337 31.5105C9.93932 32.54 10.9083 35.0723 10.6592 35.7123C10.5484 36.0184 10.1885 36.0741 9.1918 35.9349C8.16742 35.8236 7.75213 35.8793 7.47527 36.2132C6.72775 37.1593 8.52734 38.2167 10.4654 37.9663C12.1265 37.7437 12.3757 37.7437 13.5662 37.9663C14.9505 38.1889 15.8087 37.7158 15.698 36.7419C15.6149 35.9627 15.0889 35.8236 14.0368 36.2688C13.3447 36.5471 13.3724 35.434 14.0922 33.7923C14.6459 32.4287 14.8951 32.3453 16.224 32.7905C17.3315 33.1801 17.8021 34.154 17.6083 35.601C17.4145 37.1036 16.3902 38.3559 13.7323 40.3872C11.4067 42.1681 11.1575 42.7247 12.348 43.5873L13.0955 44.1438L12.1542 44.7282C11.0468 45.396 9.21949 45.7299 7.80751 45.5073C6.28478 45.2569 6.17403 45.0065 6.89387 43.0864L7.53065 41.389L6.8385 40.6376C5.23271 38.9402 4.54056 35.8793 5.20502 33.4305C5.50957 32.2618 7.08767 30.5643 7.83519 30.5643C8.05668 30.5643 8.58271 30.9817 9.05337 31.5105ZM50.527 45.6465C50.2224 48.7909 49.3641 49.5979 45.5435 50.4605C44.7406 50.6275 44.7406 50.6553 44.9067 52.2136C45.0174 53.0762 45.1559 54.3841 45.2666 55.1076L45.4604 56.4154L42.9133 57.5842C40.7815 58.5581 40.3939 58.8642 40.4493 59.3373C40.5046 59.6434 40.7538 59.9495 41.003 60.0051C41.6674 60.1442 47.3431 57.8068 47.5369 57.3337C47.6199 57.1111 47.4815 55.8867 47.26 54.6067L46.8724 52.2414L47.5646 52.1023C50.8592 51.4066 52.5757 49.5979 52.5757 46.7595C52.5757 45.8691 53.2125 45.9804 56.1749 47.4274C58.279 48.4292 59.165 49.097 60.8815 50.8223C65.1451 55.1632 66.9724 60.8956 66.9724 70.0228C66.9724 77.6751 65.7265 80.9309 60.4662 86.858C59.5803 87.8876 58.6943 88.6945 58.5005 88.6111C57.8637 88.3606 50.6377 82.8787 50.6377 82.6561C50.6377 82.517 51.9943 81.0978 53.6278 79.4839C56.3964 76.7568 56.7563 76.5064 58.196 76.2003C59.4142 75.922 59.7741 75.7273 59.7741 75.3099C59.7741 74.5585 58.5005 74.1411 57.1162 74.4472L55.9534 74.7255L55.7873 73.7237C55.7042 73.1672 55.6212 70.2732 55.6212 67.2679C55.6212 64.2626 55.5381 61.3964 55.4551 60.9234C55.2336 59.866 54.5968 59.8103 54.2092 60.8121C53.8493 61.786 53.3509 71.8315 53.5447 74.2524L53.7108 76.0612L51.136 78.816L48.5336 81.5709L45.1282 79.0665C38.5943 74.2524 37.6807 73.8629 33.4724 74.0298C31.8666 74.1133 30.3716 74.2246 30.1501 74.2803C29.4856 74.475 29.6794 70.9689 30.7038 64.5131L31.6174 58.8086L33.334 57.1389C34.2753 56.1928 37.2654 53.6328 40.0063 51.4344C47.4261 45.4517 48.0906 44.8117 48.8935 43.2534L49.5856 41.862L50.1393 42.9473C50.61 43.8099 50.6654 44.3386 50.527 45.6465ZM34.2476 46.7595C34.5521 48.2622 35.0505 49.8205 35.355 50.2379C35.6319 50.6831 35.9641 51.1562 36.0472 51.351C36.1579 51.5179 34.9951 52.7145 33.1679 54.245C31.479 55.6641 29.9286 57.1668 29.7071 57.5842C29.2918 58.419 28.1013 66.3496 27.603 71.6367L27.2707 75.0316L25.7757 75.3377C23.2286 75.8386 23.3947 76.2003 23.5885 71.3863C23.6992 69.0766 23.9484 65.9044 24.1976 64.3739C24.4191 62.8434 24.7236 60.7843 24.8621 59.8103C25.0559 58.5581 25.0559 57.8346 24.8344 57.445C24.5298 56.9163 24.5298 56.9163 23.9207 57.6677C23.3947 58.3077 22.841 59.866 21.8443 63.4C21.6782 64.0122 21.3459 64.1791 18.4943 64.847C14.2306 65.8487 11.0468 66.2661 8.36122 66.1548C5.73106 66.0157 4.92816 65.5983 3.84841 63.6504C3.18395 62.5095 3.15626 62.2034 3.15626 58.3912C3.18395 55.358 3.35006 53.5493 3.82073 51.1283C4.15296 49.3753 4.51288 47.7891 4.62362 47.6222C4.76205 47.4274 5.34345 47.4274 6.56164 47.6222C8.22279 47.9004 11.1021 47.65 12.5418 47.0935C12.9848 46.9265 13.0125 47.2883 12.8187 53.1319C12.6525 59.1146 12.6525 59.3929 13.1786 59.866C13.7046 60.3112 13.76 60.3112 14.2306 59.7825C14.5629 59.4207 14.8121 58.4468 15.0059 56.7494L15.2827 54.245L18.7435 51.9632C22.6195 49.4031 26.2464 47.5109 28.4335 46.8708L29.8732 46.4534V47.7057C29.8732 48.3735 30.0393 49.3474 30.2331 49.8483C30.7315 51.0449 32.1158 52.631 32.3926 52.3527C32.5034 52.2414 32.4203 51.4344 32.1988 50.5996C31.7005 48.7074 31.7005 47.9561 32.1988 46.3143C32.5588 45.1456 33.417 43.7542 33.6385 44.0047C33.6662 44.0325 33.9707 45.2847 34.2476 46.7595ZM37.9298 77.2577C39.5356 78.0369 41.5844 79.4282 48.6443 84.4927C55.5104 89.4737 59.8571 92.8964 60.4662 93.8425C61.6844 95.7069 60.7431 96.18 51.1914 98.4618C46.7063 99.5192 40.1724 101.105 36.6563 101.94C28.5166 103.916 23.6162 105.029 21.0968 105.474C19.2695 105.78 18.9649 105.752 17.7745 105.252C16.5009 104.723 16.2517 104.417 12.5695 98.8513C4.37445 86.4962 3.01783 84.3814 3.01783 83.964C3.01783 83.1014 4.09759 82.5726 7.33684 81.877C9.16412 81.4874 11.8497 80.8752 13.3724 80.4856C14.8674 80.0961 16.141 79.8456 16.224 79.9013C16.2794 79.9848 15.3935 80.4578 14.2583 81.0143C11.9604 82.0996 9.69015 84.0475 8.998 85.5223C7.69676 88.2493 9.30255 91.4216 12.3203 92.0894C13.1509 92.2842 14.8951 92.3677 16.5009 92.2842L19.2418 92.1451L18.3835 93.4529C16.2517 96.6252 17.3315 100.298 20.6538 101.217C23.6439 102.051 32.0881 100.744 43.1348 97.7383C49.5579 95.9852 51.4683 94.566 51.4683 91.5885C51.4683 88.8893 49.7517 86.7467 46.4571 85.2997C44.7406 84.5205 41.4183 83.7135 40.0063 83.7135C39.0373 83.7135 39.0096 83.6857 39.0096 82.6561C39.0096 80.2909 36.7947 77.8699 33.9154 77.0073C33.2232 76.8125 32.6418 76.5621 32.6418 76.4786C32.6418 76.089 36.7947 76.7012 37.9298 77.2577ZM33.0017 79.1221C33.7493 79.4004 34.8567 80.0961 35.4658 80.6804C36.5179 81.6822 36.5732 81.8213 36.4348 82.9066C36.2133 84.6597 35.4658 85.244 32.5588 85.9675C31.1468 86.3014 28.0183 87.2476 25.5819 88.0545C19.1034 90.1972 13.7323 90.6981 11.905 89.3624C10.7699 88.4998 10.7699 86.8302 11.8773 85.5779C13.7877 83.3796 16.667 83.0735 20.3216 84.7153C21.5397 85.244 22.7026 85.7727 22.8964 85.8562C23.4501 86.1067 23.284 85.3553 22.5364 84.3814C21.6782 83.2405 20.1554 82.2944 18.522 81.877L17.2761 81.5709L19.491 81.0422C23.6439 80.0961 26.191 80.6526 29.5133 83.1848C30.7869 84.1588 31.1468 84.131 30.8699 83.0457C30.51 81.6265 27.4922 78.983 26.2187 78.983C25.9418 78.983 25.7203 78.8439 25.7203 78.6769C25.7203 78.176 31.3683 78.5378 33.0017 79.1221ZM42.8579 86.6354C46.0695 87.498 49.2534 89.7798 49.2534 91.2268C49.2534 92.1451 48.6443 93.1747 47.7584 93.7034C44.7129 95.5399 29.3749 99.0461 24.0038 99.1296C21.6782 99.1574 21.2352 99.0739 20.543 98.5731C19.6571 97.9052 19.4079 96.6252 19.934 95.3452C20.4323 94.0929 22.4811 92.479 24.2253 91.9225C26.8278 91.1155 28.9042 91.6442 32.365 93.9816C33.8046 94.9834 34.0261 95.0112 34.0261 94.3434C34.0261 92.8407 31.3683 90.6146 28.7935 89.9468L27.5199 89.6407L29.0426 89.1676C33.2786 87.8597 36.4348 88.4719 40.1724 91.3937C41.972 92.8129 42.3873 92.6181 41.5013 90.8094C40.8369 89.418 39.3418 88.0545 37.9852 87.5536C36.8778 87.1362 36.8501 86.9136 37.8468 86.5519C38.9542 86.1345 41.1414 86.1623 42.8579 86.6354Z" fill="black"/>
<path d="M31.5078 24.665C30.7049 25.3607 30.9541 26.112 32.0339 26.112C32.4491 26.112 33.0305 26.279 33.3074 26.4738C33.7781 26.8355 33.7781 26.9468 32.9475 28.5608C31.9231 30.62 31.8401 32.0113 32.6983 32.6235C33.9165 33.4861 36.8789 32.9852 37.1834 31.9C37.4049 30.9539 37.1004 30.7591 35.5223 30.9261L34.0826 31.0652L34.8855 29.3678C35.9376 27.1138 35.9376 26.0285 34.8855 24.9711C33.9165 24.025 32.5045 23.8859 31.5078 24.665Z" fill="black"/>
<path d="M39.0378 24.5537C38.5117 25.1659 38.9824 25.6946 40.5882 26.2234C42.4708 26.8634 43.163 26.8077 43.163 26.0286C43.163 25.0546 42.2493 24.3868 40.7266 24.2198C39.7299 24.1363 39.3146 24.2198 39.0378 24.5537Z" fill="black"/>
<path d="M39.1483 34.627C38.4008 34.8218 36.795 34.9888 35.6322 34.9888C34.4417 35.0166 33.4727 35.0723 33.4727 35.1557C33.4727 35.5731 34.3309 36.881 34.94 37.4932C35.9367 38.4115 37.764 38.5506 38.9268 37.8271C40.0896 37.0758 40.7264 36.074 40.6156 35.1001L40.5326 34.3209L39.1483 34.627Z" fill="black"/>
<path d="M16.5008 12.3934C16.0302 12.8386 16.4178 13.8961 17.8298 15.9831C19.657 18.7101 20.2384 19.2666 20.9583 19.044C22.0103 18.6823 21.8442 18.0701 19.8508 15.1204C18.3558 12.9499 17.6913 12.1986 17.276 12.1986C16.9438 12.1986 16.5839 12.2821 16.5008 12.3934Z" fill="black"/>
<path d="M10.3557 19.4336C10.0235 20.5189 10.9648 21.131 15.3945 22.6615C17.0834 23.2459 17.6094 23.3294 18.1355 23.0789C19.5751 22.4389 18.7169 21.6319 14.8685 20.1293C11.2416 18.7101 10.6049 18.6266 10.3557 19.4336Z" fill="black"/>
</svg>
