<svg width="31" height="30" viewBox="0 0 31 30" fill="none" xmlns="http://www.w3.org/2000/svg">
<path d="M15.5 15H15.51M19.5 9V7C19.5 6.46957 19.2893 5.96086 18.9142 5.58579C18.5391 5.21071 18.0304 5 17.5 5H13.5C12.9696 5 12.4609 5.21071 12.0858 5.58579C11.7107 5.96086 11.5 6.46957 11.5 7V9M25.5 16C22.5328 17.959 19.0555 19.0033 15.5 19.0033C11.9445 19.0033 8.46721 17.959 5.5 16M7.5 9H23.5C24.6046 9 25.5 9.89543 25.5 11V21C25.5 22.1046 24.6046 23 23.5 23H7.5C6.39543 23 5.5 22.1046 5.5 21V11C5.5 9.89543 6.39543 9 7.5 9Z" stroke="currentColor" stroke-width="2" stroke-linecap="round" stroke-linejoin="round"/>
</svg>
