<svg width="82" height="124" viewBox="0 0 82 124" fill="none" xmlns="http://www.w3.org/2000/svg">
<path d="M39.0971 0.157982C37.3274 0.471764 35.3747 1.69551 34.1847 3.26442C33.0863 4.64506 31.7743 7.68873 31.7438 8.78696C31.7438 10.0421 31.4082 10.45 30.4013 10.45C27.5637 10.4814 23.8108 12.3954 20.9733 15.2509C19.0205 17.2277 18.4408 18.4514 17.8001 21.8403C17.4339 23.8798 16.0914 28.4924 15.7253 28.9003C15.6948 28.9317 15.2676 28.7748 14.7795 28.4924C14.2913 28.2414 13.7116 28.0218 13.498 28.0218C12.1555 28.0218 2.78846 44.4953 1.20186 49.6413C0.378056 52.3712 0.347545 55.3835 1.14084 57.2034C3.00204 61.5336 9.86711 65.0793 21.553 67.6837C23.5362 68.1544 25.5195 68.5937 25.9161 68.6878C26.5264 68.8133 26.5874 68.9702 26.4348 69.9115C25.9771 72.3277 25.672 77.7561 25.6415 82.808V88.205L24.8177 88.5188C23.8413 88.8953 16.8542 90.5584 9.37893 92.1586C6.57188 92.7862 3.88687 93.4765 3.39869 93.7275C1.78158 94.6061 0.89675 96.834 1.47647 98.5598C1.75107 99.407 10.874 111.99 15.7558 118.234C20.8817 124.855 21.5225 125.012 32.8727 122.501C47.7318 119.207 67.2286 114.437 68.5101 113.81C70.0967 113.056 70.7984 111.958 70.7984 110.327C70.7984 109.573 70.6459 108.632 70.4628 108.287C70.1577 107.722 70.4018 107.377 72.385 105.243C79.0365 98.2774 81.0198 93.6648 81.3859 84.471C81.752 74.8065 80.0129 65.7069 76.7177 60.4667C74.1242 56.2307 71.0425 53.7832 65.703 51.5553C62.3163 50.1747 62.2552 50.1119 61.2789 48.4175C60.6686 47.382 59.9059 46.5035 59.3261 46.2211C58.4108 45.7818 58.3498 45.6563 58.1972 43.2715L57.9836 40.7927L59.3566 39.2551C61.2178 37.1528 62.0416 34.7367 61.7976 32.2578C61.4314 28.4924 61.3094 24.6957 61.4924 23.4092C61.6755 22.1854 61.7976 22.0285 63.018 21.4637C64.8792 20.6165 67.2896 18.2318 68.205 16.2863C69.8526 12.772 69.4864 9.72831 67.1371 7.28082C65.3369 5.4295 64.1164 5.02158 57.3734 4.01749C53.9561 3.48405 51.088 2.85651 49.4404 2.26032C43.5517 0.12661 41.4769 -0.281311 39.0971 0.157982ZM42.2397 3.10753C42.6669 3.26442 42.5754 3.48405 41.8431 4.33126C39.9209 6.59048 39.4937 10.45 40.8667 13.2427C41.5075 14.5292 42.8805 15.7215 43.2466 15.345C43.3687 15.2509 43.2161 14.4036 42.9415 13.4623C42.2397 11.2031 42.3008 9.1635 43.0635 7.46908C43.8568 5.77467 45.6265 4.04886 46.3588 4.33126C48.0369 4.9902 52.9187 6.33947 54.3223 6.49636C57.3124 6.90427 57.8921 7.18668 58.0752 8.47318C58.3193 10.0421 57.8311 12.1444 56.7327 14.0899C56.2445 14.9685 55.8478 16.0039 55.8478 16.3805C55.8478 17.008 55.9089 17.0394 56.7022 16.6001C58.6549 15.5333 60.0889 12.8034 60.3635 9.60279C60.4856 7.81424 60.5771 7.62597 61.1873 7.62597C62.3163 7.62597 64.6046 8.56732 65.3064 9.35177C67.8388 12.113 65.3064 17.7925 60.9432 19.079C59.9364 19.3614 59.082 19.8321 58.899 20.1772C58.7159 20.491 58.5939 22.1854 58.5939 23.9112V27.049L57.4954 26.296C54.9325 24.5074 50.6609 23.7857 44.1009 24.0681C41.4159 24.1622 38.8225 24.3505 38.3343 24.4446L37.4799 24.6643L37.6935 21.8716C37.8156 20.3341 37.9986 18.6083 38.1512 18.0435C38.3953 17.1022 38.3343 16.9767 37.602 16.7256C35.2831 15.8784 34.6424 14.6233 34.6424 11.0776C34.6729 8.81834 34.7949 8.1594 35.4662 6.84151C36.351 5.11572 37.602 3.73509 38.7614 3.26442C39.6463 2.91926 41.538 2.82513 42.2397 3.10753ZM31.3777 13.4623C31.3166 13.7447 30.7369 14.184 30.0657 14.4664C28.296 15.1567 26.4958 16.4746 25.9771 17.4159C25.611 18.1063 25.5805 18.6083 25.8551 20.24C26.1907 22.3737 26.0077 23.1581 25.0313 23.4092C24.4821 23.5347 24.4211 23.4092 24.4211 22.3423C24.4211 21.3696 24.299 21.1186 23.8719 21.1186C22.5294 21.1186 22.1632 22.9699 23.2311 24.3819C24.7567 26.3587 28.3875 24.6015 28.3875 21.8403C28.3875 21.1813 28.2655 20.1772 28.1129 19.6124C27.8383 18.7024 27.8994 18.5456 28.7842 17.8552C29.3334 17.4473 30.3708 16.8198 31.1336 16.4432C32.4761 15.7843 32.4761 15.7843 33.0863 16.3805C33.666 17.008 33.666 17.008 31.9574 18.8907C31.0115 19.9576 29.608 22.0285 28.8147 23.5661C27.8994 25.2291 26.5264 27.2059 25.1838 28.6493C24.0244 29.9358 22.8345 31.3165 22.5904 31.7244L22.1327 32.4461L20.0579 31.4734L18.0137 30.532L18.4103 29.6534C19.1731 28.1473 20.0884 24.7898 20.4546 22.4364C20.8512 19.6438 21.2784 18.7024 22.987 17.008C25.0008 14.9998 27.2281 13.5878 28.8757 13.3054C31.2251 12.8975 31.4997 12.8975 31.3777 13.4623ZM35.1001 19.8321C35.1001 19.989 34.9475 22.2482 34.7644 24.8212C34.4898 28.869 34.5203 29.6848 34.917 30.6889C35.2221 31.4106 35.4052 32.8226 35.4052 34.2974C35.4052 39.0669 36.5951 43.8991 38.4868 46.7859C39.1581 47.79 39.3106 48.2606 39.0971 48.6999C38.3953 50.0178 38.3343 50.0178 28.9673 49.6413C24.0244 49.453 19.9664 49.2334 19.9054 49.202C19.7528 49.0765 22.6209 42.7067 24.2685 39.4434C25.1838 37.6548 25.9466 35.8977 25.9466 35.5211C25.9466 35.176 25.5805 34.5484 25.1533 34.1405L24.3295 33.356L26.8925 30.5948C28.6011 28.7435 29.8826 26.9863 30.7369 25.3232C32.4151 22.0913 35.1001 18.7024 35.1001 19.8321ZM51.1186 27.0804C54.1392 27.5511 54.4138 27.6452 54.2002 28.4297C53.9561 29.371 54.5664 31.944 55.2681 32.8226C55.5732 33.2619 56.3055 33.7012 56.8547 33.7953C57.4039 33.8895 58.1362 34.1719 58.4413 34.4229C58.96 34.7994 58.96 34.9249 58.5939 35.8977C58.3498 36.4938 57.526 37.6548 56.7327 38.5334L55.2986 40.1023L55.5732 43.397C55.6953 45.217 55.9089 47.2252 56.0004 47.8841C56.214 49.0137 56.1224 49.1392 54.2002 51.0847C52.156 53.1556 46.6944 57.5172 46.2062 57.5172C45.4434 57.4858 43.9484 53.9715 43.9484 52.1829V51.2416L46.3283 51.2102C48.6776 51.1788 50.0201 50.865 51.1491 49.9864C52.0949 49.2334 53.1018 47.7586 53.1018 47.0996C53.1018 46.5035 53.1018 46.5035 52.1254 47.0996C49.0133 49.0137 45.1993 49.2334 42.972 47.6017C39.9819 45.4366 38.4563 41.6085 38.2427 35.7094L38.0902 31.944L39.9514 32.0381L41.8126 32.1637V33.1364C41.8126 33.7012 41.538 34.768 41.2023 35.5211C40.165 37.8431 40.4396 38.6276 42.4533 39.0355C44.0704 39.3179 46.0842 38.8786 46.0842 38.1883C46.0842 37.6235 44.6501 37.0273 43.7043 37.2155C43.2771 37.3097 43.0635 37.2155 43.1551 36.9959C43.9789 35.0191 44.2535 33.2933 43.9484 32.1323C43.4907 30.3437 42.5448 29.7789 40.409 29.9986C39.4937 30.0927 38.5173 30.3437 38.2733 30.5634C37.9376 30.8458 37.7546 30.7203 37.3579 29.7476C36.9307 28.6807 36.9307 28.5238 37.3579 28.0845C38.4868 26.9235 46.2062 26.3587 51.1186 27.0804ZM19.6003 34.266L22.865 35.8977L20.363 41.1378C18.99 44.0246 17.3119 47.5389 16.6712 48.9823C16.0304 50.3944 15.0846 51.9319 14.5964 52.3398C13.8336 52.9987 13.7421 53.2184 14.0777 53.6263C14.5659 54.2225 15.6948 53.9715 17.0373 52.936L18.0137 52.1515L26.801 52.4653C31.6218 52.6222 35.8323 52.8732 36.1985 52.9674C36.7477 53.1556 36.8087 53.3439 36.6867 54.8187C36.5341 56.8269 37.1443 58.2075 39.2496 60.6236L40.7142 62.2867L39.5242 63.2908C36.1374 66.0207 36.0764 66.1148 35.2526 70.2253C34.3983 74.6183 33.5745 81.5842 33.5745 84.5651V86.6675L31.9879 86.9812C31.1031 87.1381 29.9131 87.3578 29.3944 87.4519L28.3875 87.6088V82.3373C28.3875 77.003 28.9673 69.786 29.7301 65.2048C30.1572 62.7887 30.0047 61.5963 29.3029 61.5963C29.1503 61.5963 28.5706 62.5691 28.0214 63.7301L27.0145 65.8951L22.804 64.9852C13.7116 63.0397 7.02955 60.3726 4.68017 57.7368C3.18511 56.0424 2.84948 54.7245 3.33766 52.2457C3.91738 49.2961 8.00591 41.0437 12.0944 34.517L14.0472 31.442L15.1761 32.0381C15.8168 32.3833 17.8001 33.3874 19.6003 34.266ZM60.1194 52.3398C60.1194 53.3753 59.8753 54.4108 59.4482 55.3207C58.838 56.5445 58.4413 56.8896 56.275 57.9879C54.9325 58.6782 53.6815 59.3371 53.4985 59.4626C53.2849 59.6195 53.3459 60.5922 53.712 62.4436C54.0171 63.9497 54.2307 65.2676 54.1697 65.3931C54.0782 65.4872 52.7967 66.1148 51.2711 66.7424C49.7761 67.4013 48.4641 68.0289 48.3725 68.1857C48.281 68.3426 48.4336 68.6564 48.6776 68.9074C49.0743 69.3467 49.5015 69.2526 52.5221 68.1857C54.3833 67.5268 56.0004 66.8992 56.0614 66.8051C56.2445 66.6482 55.6648 62.3808 55.3596 61.1884C55.2376 60.7805 55.6343 60.4354 57.2819 59.6823C60.5161 58.2075 61.2789 57.4544 61.8586 55.2893C62.3468 53.438 62.3773 53.4067 63.2926 53.6263C64.8792 53.9715 68.6931 55.8855 70.4018 57.2348C72.2935 58.6782 74.4598 61.565 75.5582 64.0752C77.8771 69.2526 79.1281 79.1995 78.4263 86.6988C77.8161 93.2255 75.9854 97.1164 71.012 102.576L68.4491 105.337L64.6656 102.419C62.5909 100.788 60.5771 99.1873 60.211 98.8422L59.5397 98.2146L63.079 94.4179C67.076 90.1191 68.1134 89.3346 70.2492 89.0522C71.4087 88.8953 71.7138 88.707 71.6528 88.3305C71.5002 87.4519 70.1577 86.9812 68.4491 87.1381C66.8625 87.295 66.8319 87.2636 66.8319 86.4164C66.8319 84.8162 65.6115 69.6291 65.4284 69.0643C65.1843 68.2171 64.4215 68.374 64.0554 69.3467C63.5062 70.7901 63.3842 77.4109 63.7503 83.4983C64.1164 89.1463 64.0249 91.6566 63.4452 90.7466C63.2316 90.4015 62.4688 91.0604 60.3025 93.351C58.6854 95.0454 57.3124 96.4261 57.2208 96.4261C57.0988 96.4261 55.3596 95.1082 53.3154 93.5079C49.1353 90.1818 45.6875 87.7657 43.6433 86.6675C42.4838 86.0085 41.8431 85.9144 39.2801 85.9144H36.3205V84.5024C36.3205 82.4 36.8392 77.7247 37.602 72.5787C38.2122 68.4995 38.3648 67.9347 39.1886 66.9934C40.2565 65.7383 44.8942 61.816 49.4404 58.3016C53.1018 55.4462 57.3734 51.3671 58.3498 49.7354L58.9905 48.6372L59.5397 49.704C59.8448 50.3002 60.0889 51.4612 60.1194 52.3398ZM41.599 52.0888C41.8736 54.6618 42.3008 55.9797 43.3381 57.5486C43.8263 58.3016 44.2535 59.0233 44.2535 59.1488C44.2535 59.243 43.7348 59.7764 43.0635 60.3098C41.9041 61.2826 41.8736 61.2826 41.1413 60.6864C40.226 59.9333 38.7614 56.8896 38.7614 55.6973C38.7614 55.1952 38.914 54.3166 39.1276 53.7204C39.4632 52.6222 40.8972 50.3316 41.2329 50.3002C41.3244 50.3002 41.5075 51.116 41.599 52.0888ZM42.9415 89.4601C44.7722 90.4328 49.4404 93.8844 57.526 100.317C68.205 108.758 68.9983 109.573 67.7778 110.829C67.015 111.613 46.7859 116.665 30.4318 120.117C21.7361 121.968 21.8886 122.031 16.9153 115.316C7.02955 102.011 3.9784 97.7753 3.9784 97.336C3.9784 96.3005 5.16835 95.7671 9.50097 94.8572C11.9114 94.3237 15.8474 93.4138 18.2578 92.8176C20.6682 92.2214 22.926 91.7193 23.2921 91.7507C23.6583 91.7507 22.926 92.0331 21.675 92.3783C18.5934 93.1941 14.6879 95.1709 13.0098 96.7398C9.40944 100.16 9.50097 104.522 13.2539 106.436C14.4743 107.063 15.2371 107.22 17.3729 107.22C18.807 107.252 20.5766 107.157 21.2784 107L22.5904 106.781L21.614 108.193C20.8207 109.354 20.6071 109.981 20.5156 111.582C20.4241 113.213 20.5156 113.684 21.1258 114.594C23.6583 118.485 29.5775 118.202 48.6776 113.339C56.3055 111.425 58.5939 109.919 59.0515 106.624C59.4787 103.831 57.3124 100.976 53.2849 99.0932C50.9355 97.9636 47.6708 97.0536 46.1452 97.0536C45.1993 97.0536 45.1688 97.0222 45.1688 95.7044C45.1688 92.9117 43.0941 90.7152 39.1276 89.366L36.7782 88.5502L39.2191 88.6757C40.9583 88.7698 42.0262 88.9894 42.9415 89.4601ZM38.4563 91.8762C41.66 92.9117 43.1551 95.3278 41.9651 97.6498C41.4159 98.748 41.2634 98.8108 37.5105 99.407C35.3136 99.7208 33.3304 100.317 30.2487 101.572C25.0923 103.674 21.9496 104.365 17.617 104.396C14.3218 104.427 14.2913 104.427 13.5285 103.518C12.0944 101.792 13.2234 99.2187 16.183 97.5557C17.556 96.7712 17.9526 96.7085 19.3562 96.8654C20.241 96.9909 21.8581 97.5243 22.926 98.0577C23.9939 98.5598 25.3974 99.1873 26.0382 99.4384C27.0145 99.7835 27.1671 99.7835 27.1671 99.3756C27.1671 98.5284 24.2075 95.8926 22.5599 95.2337L21.0038 94.6375L22.0107 94.1982C22.6819 93.9158 24.177 93.7589 26.2517 93.7589C29.1808 93.7589 29.608 93.8217 31.1336 94.6689C32.0489 95.1709 33.483 96.1123 34.3068 96.7712C35.1001 97.4302 35.8934 97.9008 36.0154 97.8381C36.351 97.6184 35.8934 95.9868 35.1916 95.0454C34.4898 94.0413 31.5302 92.0331 30.4318 91.8135C29.9741 91.7193 29.5165 91.4997 29.3944 91.3114C29.0893 90.8094 36.5341 91.2487 38.4563 91.8762ZM50.905 100.976C52.9798 101.635 53.7425 102.074 54.963 103.298C56.214 104.522 56.4581 104.961 56.4581 105.902C56.4581 107.377 55.6037 108.413 53.7731 109.228C51.6067 110.201 45.2299 111.927 39.0665 113.276C34.3373 114.28 33.2084 114.406 29.0588 114.437L24.36 114.468L23.6278 113.59C22.3158 111.99 22.804 110.264 25.2144 108.067C26.923 106.53 29.3334 105.683 31.2556 105.965C32.8117 106.216 35.1306 107.283 37.2969 108.789C39.0055 109.981 39.3717 109.856 38.7614 108.318C38.1207 106.749 36.0154 105.149 33.1168 104.082C32.1405 103.706 35.1611 103.078 38.0292 103.047C41.0803 103.015 42.3923 103.455 45.2604 105.526C47.6708 107.252 48.0979 107.095 47.03 104.961C46.2978 103.486 44.9553 102.262 43.4907 101.729C42.911 101.509 42.4228 101.227 42.4228 101.133C42.4228 101.007 42.8805 100.693 43.4297 100.411C44.7722 99.6894 47.6403 99.909 50.905 100.976Z" fill="black"/>
<path d="M47.1019 29.755C46.6878 30.7835 46.9207 31.0235 48.9135 31.8463C50.8804 32.6348 51.2427 32.5319 51.2427 31.2635C51.2427 29.5836 47.6971 28.2809 47.1019 29.755Z" fill="black"/>
<path d="M46.963 40.4424C46.0808 40.7301 44.8065 40.989 44.1857 41.0178C43.5649 41.0466 42.7153 41.1617 42.2906 41.2768L41.5391 41.4494L42.2906 42.4565C43.8263 44.4706 46.1789 44.7871 47.976 43.2046C48.8908 42.3989 49.0869 41.9961 49.0869 41.0466C49.0869 40.3848 48.9889 39.8957 48.8582 39.8957C48.6948 39.9244 47.8779 40.1834 46.963 40.4424Z" fill="black"/>
</svg>
