<svg width="16" height="17" viewBox="0 0 16 17" fill="none" xmlns="http://www.w3.org/2000/svg">
<path d="M9.15236 3.13249L10.3257 5.47916C10.4857 5.80582 10.9124 6.11916 11.2724 6.17916L13.399 6.53249C14.759 6.75916 15.079 7.74582 14.099 8.71916L12.4457 10.3725C12.1657 10.6525 12.0124 11.1925 12.099 11.5792L12.5724 13.6258C12.9457 15.2458 12.0857 15.8725 10.6524 15.0258L8.65902 13.8458C8.29902 13.6325 7.70569 13.6325 7.33902 13.8458L5.34569 15.0258C3.91902 15.8725 3.05236 15.2392 3.42569 13.6258L3.89902 11.5792C3.98569 11.1925 3.83236 10.6525 3.55236 10.3725L1.89902 8.71916C0.92569 7.74582 1.23902 6.75916 2.59902 6.53249L4.72569 6.17916C5.07902 6.11916 5.50569 5.80582 5.66569 5.47916L6.83902 3.13249C7.47902 1.85916 8.51902 1.85916 9.15236 3.13249Z" fill="currentColor"/>
</svg>
