<svg width="31" height="30" viewBox="0 0 31 30" fill="none" xmlns="http://www.w3.org/2000/svg">
<path d="M19 8.76395C18.6897 8.76395 18.3836 8.69173 18.106 8.55302L13.894 6.44702C13.6164 6.3083 13.3103 6.23608 13 6.23608M19 8.76395C19.3103 8.76395 19.6164 8.69173 19.894 8.55302L23.553 6.72302C23.7056 6.64678 23.8751 6.61083 24.0455 6.61858C24.2159 6.62634 24.3814 6.67755 24.5265 6.76735C24.6715 6.85714 24.7911 6.98253 24.874 7.1316C24.9569 7.28067 25.0003 7.44846 25 7.61902V20.383C24.9999 20.5687 24.9481 20.7506 24.8505 20.9085C24.7528 21.0664 24.6131 21.194 24.447 21.277L19.894 23.554C19.6164 23.6927 19.3103 23.7649 19 23.7649M19 8.76395V23.7649M19 23.7649C18.6897 23.7649 18.3836 23.6927 18.106 23.554L13.894 21.448C13.6164 21.3093 13.3103 21.2371 13 21.2371C12.6897 21.2371 12.3836 21.3093 12.106 21.448L8.447 23.278C8.29436 23.3543 8.12473 23.3902 7.95426 23.3824C7.78379 23.3746 7.61816 23.3233 7.47312 23.2334C7.32808 23.1435 7.20846 23.018 7.12565 22.8688C7.04284 22.7196 6.99958 22.5517 7 22.381V9.61802C7.0001 9.43235 7.05189 9.25039 7.14956 9.09249C7.24722 8.93459 7.38692 8.80701 7.553 8.72402L12.106 6.44702C12.3836 6.3083 12.6897 6.23608 13 6.23608M13 6.23608V21.236" stroke="currentColor" stroke-width="2" stroke-linecap="round" stroke-linejoin="round"/>
</svg>
